#!OML:ASF F:\VICON\USERDATA\INSTALL\rory3\rory3.ASF
:FULLY-SPECIFIED
:DEGREES
1691
root -14.3412 17.7499 15.2384 543.652 7.0605 -898.452
lowerback 12.6285 2.94868 1.85974
upperback 1.11951 4.30544 -0.138317
thorax -5.74483 2.1248 -1.93883
lowerneck -21.5838 -4.5926 -11.9872
upperneck 31.5181 -6.39855 6.89266
head 15.2825 -3.7636 3.55831
rclavicle -5.42806e-014 1.59028e-015
rhumerus -29.9175 -8.27512 -84.5259
rradius 33.4368
rwrist 4.52932
rhand -16.4412 7.95331
rfingers 7.12502
rthumb 9.77455 -21.7998
lclavicle -5.42806e-014 1.59028e-015
lhumerus -40.0053 9.90857 78.6916
lradius 26.302
lwrist -9.84656
lhand -16.2581 35.4957
lfingers 7.12502
lthumb 9.95114 65.2405
rfemur 9.77394 -5.58147 27.3067
rtibia 6.01787
rfoot -14.812 -8.86643
rtoes -0.557583
lfemur -31.6591 -2.30694 -18.8759
ltibia 22.0431
lfoot -8.91002 -3.75619
ltoes -4.07576
1692
root -14.3327 17.7451 15.1713 543.619 6.84775 -898.473
lowerback 12.6405 2.92426 1.81003
upperback 1.18678 4.27295 -0.102307
thorax -5.68822 2.11425 -1.86622
lowerneck -21.6833 -4.5835 -11.9833
upperneck 31.5675 -6.35201 6.84206
head 15.32 -3.74771 3.5459
rclavicle -3.2551e-015 -2.48481e-016
rhumerus -29.8163 -8.22173 -84.6405
rradius 33.2917
rwrist 4.47799
rhand -16.1862 7.91872
rfingers 7.12502
rthumb 10.0205 -21.8227
lclavicle -3.2551e-015 -2.48481e-016
lhumerus -40.2349 10.6939 78.2108
lradius 25.8435
lwrist -10.3448
lhand -15.8209 32.258
lfingers 7.12502
lthumb 10.3729 61.9822
rfemur 10.8982 -5.76289 27.2585
rtibia 4.39531
rfoot -14.209 -8.79886
rtoes -0.611612
lfemur -31.6975 -2.39618 -18.8145
ltibia 21.9576
lfoot -7.88006 -3.84791
ltoes -2.57463
1693
root -14.3228 17.7414 15.1013 543.604 6.61622 -898.544
lowerback 12.6493 2.88869 1.72036
upperback 1.2028 4.21544 -0.0891184
thorax -5.6859 2.08905 -1.79275
lowerneck -21.5932 -4.57943 -12.0086
upperneck 31.459 -6.33683 6.86971
head 15.2494 -3.73583 3.5645
rclavicle -2.49351e-014 8.39865e-015
rhumerus -29.7864 -8.2456 -84.7272
rradius 33.126
rwrist 4.58692
rhand -15.878 7.96528
rfingers 7.12502
rthumb 10.3179 -21.7616
lclavicle -2.49351e-014 8.39865e-015
lhumerus -40.4559 11.1281 77.9218
lradius 25.4129
lwrist -10.8296
lhand -15.4896 30.6675
lfingers 7.12502
lthumb 10.6925 60.3754
rfemur 13.4292 -5.95444 27.1182
rtibia 3.18055e-014
rfoot -12.0992 -8.5007
rtoes -1.32547
lfemur -31.8067 -2.43066 -18.8376
ltibia 22.0513
lfoot -6.90704 -3.9844
ltoes -1.58293
1694
root -14.3159 17.7371 15.0312 543.649 6.5367 -898.554
lowerback 12.6458 2.90128 1.68353
upperback 1.16471 4.22521 -0.0803784
thorax -5.7271 2.09265 -1.76591
lowerneck -21.4802 -4.54609 -11.897
upperneck 31.3346 -6.29874 6.80639
head 15.1537 -3.71017 3.52505
rclavicle -4.76338e-014 4.91992e-015
rhumerus -29.7829 -8.25005 -84.8578
rradius 32.9266
rwrist 4.73375
rhand -16.0102 8.04485
rfingers 7.12502
rthumb 10.1903 -21.6883
lclavicle -4.76338e-014 4.91992e-015
lhumerus -40.6049 11.3121 77.785
lradius 24.9453
lwrist -11.2607
lhand -15.1833 30.2122
lfingers 7.12502
lthumb 10.9879 59.9046
rfemur 13.6556 -5.99224 27.083
rtibia 6.36111e-015
rfoot -12.0843 -8.44148
rtoes -2.46252
lfemur -31.9271 -2.19229 -18.8589
ltibia 22.1122
lfoot -5.92884 -4.25418
ltoes -0.818154
1695
root -14.3396 17.7344 14.8834 542.611 7.93583 -898.62
lowerback 12.9998 3.35385 1.81789
upperback 1.55997 4.87494 -0.168268
thorax -5.46219 2.42957 -2.04979
lowerneck -21.3152 -4.50298 -11.8955
upperneck 31.2401 -6.26202 6.84939
head 15.0697 -3.68937 3.55029
rclavicle -9.83114e-014 6.16232e-015
rhumerus -29.9399 -8.24025 -84.9726
rradius 32.8504
rwrist 4.8674
rhand -16.4212 8.38031
rfingers 7.12502
rthumb 9.79378 -21.3719
lclavicle -9.83114e-014 6.16232e-015
lhumerus -40.8176 11.3487 77.7187
lradius 24.5227
lwrist -11.5969
lhand -14.9288 29.8524
lfingers 7.12502
lthumb 11.2335 59.5316
rfemur 15.2683 -4.65595 26.591
rtibia -3.18055e-014
rfoot -12.226 -8.36418
rtoes -4.042
lfemur -30.3456 -2.90902 -18.3983
ltibia 22.2056
lfoot -5.31235 -2.0176
ltoes -0.212245
1696
root -14.3358 17.7317 14.8034 542.694 7.96095 -898.746
lowerback 12.9409 3.42875 1.70504
upperback 1.4692 4.94693 -0.219945
thorax -5.52709 2.46144 -2.05272
lowerneck -21.2556 -4.47761 -11.9769
upperneck 31.311 -6.26539 6.96454
head 15.0972 -3.69385 3.614
rclavicle -5.43552e-014 3.97569e-016
rhumerus -30.1584 -8.31227 -85.0391
rradius 32.7372
rwrist 4.96576
rhand -16.4527 8.66023
rfingers 7.12502
rthumb 9.76339 -21.0934
lclavicle -5.43552e-014 3.97569e-016
lhumerus -41.1335 11.2581 77.7093
lradius 24.3206
lwrist -11.7808
lhand -14.6911 29.8228
lfingers 7.12502
lthumb 11.4627 59.4895
rfemur 15.4992 -4.57566 26.3784
rtibia 9.54166e-015
rfoot -12.3584 -8.20422
rtoes -4.83279
lfemur -30.384 -3.03882 -18.4001
ltibia 22.2878
lfoot -4.5057 -1.7965
ltoes 1.31415
1697
root -14.3344 17.7261 14.7167 542.786 8.00186 -898.746
lowerback 12.7966 3.47755 1.72236
upperback 1.43782 5.00637 -0.236145
thorax -5.47486 2.48919 -2.0796
lowerneck -21.3204 -4.49644 -12.0467
upperneck 31.3836 -6.2965 7.03909
head 15.1555 -3.70758 3.6525
rclavicle 1.33558e-014 2.98177e-016
rhumerus -30.1662 -8.35787 -85.1254
rradius 32.5199
rwrist 4.96426
rhand -16.2593 8.51526
rfingers 7.12502
rthumb 9.94999 -21.2296
lclavicle 1.33558e-014 2.98177e-016
lhumerus -41.3713 11.6486 77.4702
lradius 24.0718
lwrist -12.4544
lhand -14.3292 29.7545
lfingers 7.12502
lthumb 11.8117 59.4014
rfemur 15.7251 -4.47527 26.2904
rtibia 3.81667e-014
rfoot -12.4554 -8.06873
rtoes -5.1287
lfemur -30.3666 -3.24903 -18.2509
ltibia 22.3921
lfoot -4.08152 -1.30606
ltoes 2.35571
1698
root -14.3331 17.7181 14.629 542.926 8.12762 -898.681
lowerback 12.5608 3.54055 1.75537
upperback 1.41722 5.08609 -0.225486
thorax -5.36081 2.52809 -2.08266
lowerneck -21.2883 -4.51272 -12.1047
upperneck 31.3824 -6.34251 7.13432
head 15.1601 -3.7231 3.69413
rclavicle -4.45402e-014 7.05686e-015
rhumerus -30.162 -8.3737 -85.2341
rradius 32.3621
rwrist 4.9688
rhand -16.172 8.19698
rfingers 7.12502
rthumb 10.0342 -21.5438
lclavicle -4.45402e-014 7.05686e-015
lhumerus -41.591 12.1039 77.2063
lradius 23.8187
lwrist -13.1656
lhand -14.1092 29.4285
lfingers 7.12502
lthumb 12.0238 59.0631
rfemur 15.9061 -4.28795 26.2893
rtibia -9.54166e-015
rfoot -12.4516 -7.98381
rtoes -5.5656
lfemur -30.2643 -3.47851 -17.9998
ltibia 22.3575
lfoot -3.92461 -0.61387
ltoes 1.81756
1699
root -14.3376 17.7122 14.5351 543.116 8.38182 -898.659
lowerback 12.2222 3.62915 1.81474
upperback 1.3841 5.19669 -0.254061
thorax -5.19547 2.5814 -2.13799
lowerneck -21.2011 -4.49859 -12.2052
upperneck 31.3545 -6.3665 7.31854
head 15.1424 -3.72412 3.78544
rclavicle 6.02566e-014 -5.46658e-015
rhumerus -30.264 -8.30809 -85.346
rradius 32.3416
rwrist 4.99155
rhand -16.1254 8.24012
rfingers 7.12502
rthumb 10.0792 -21.4985
lclavicle 6.02566e-014 -5.46658e-015
lhumerus -41.8729 12.0425 77.2469
lradius 23.7938
lwrist -13.1232
lhand -14.0873 29.4863
lfingers 7.12502
lthumb 12.045 59.1197
rfemur 16.0263 -3.96419 26.2167
rtibia -4.77083e-014
rfoot -12.3413 -7.92267
rtoes -6.53783
lfemur -30.1588 -3.70343 -17.7986
ltibia 22.3768
lfoot -4.0126 0.0702509
ltoes 0.737403
1700
root -14.3443 17.7087 14.435 543.206 8.55133 -898.751
lowerback 12.0069 3.71884 1.832
upperback 1.3512 5.30473 -0.329236
thorax -5.09714 2.63333 -2.22683
lowerneck -21.2254 -4.53853 -12.2196
upperneck 31.3928 -6.44537 7.37068
head 15.1791 -3.75392 3.79496
rclavicle 6.99846e-014 -7.20594e-015
rhumerus -30.4077 -8.33927 -85.3983
rradius 32.3178
rwrist 5.00898
rhand -16.1557 8.39926
rfingers 7.12502
rthumb 10.05 -21.3408
lclavicle 6.99846e-014 -7.20594e-015
lhumerus -42.1508 11.9468 77.2339
lradius 23.7324
lwrist -13.1075
lhand -14.0808 28.8464
lfingers 7.12502
lthumb 12.0512 58.4794
rfemur 16.265 -3.73332 26.0003
rtibia -3.81667e-014
rfoot -12.3333 -7.88793
rtoes -7.04427
lfemur -29.9273 -3.89023 -17.7968
ltibia 22.4292
lfoot -4.22709 0.397449
ltoes 0.398405
1701
root -14.3477 17.6991 14.3365 543.182 8.57724 -898.813
lowerback 12.0064 3.7589 1.82495
upperback 1.30994 5.35209 -0.373885
thorax -5.13435 2.65408 -2.2786
lowerneck -21.3265 -4.57604 -12.0699
upperneck 31.5121 -6.5338 7.27582
head 15.2584 -3.78991 3.7118
rclavicle -4.55962e-014 6.5102e-015
rhumerus -30.5652 -8.45625 -85.4395
rradius 32.2207
rwrist 5.07346
rhand -16.2797 8.38212
rfingers 7.12502
rthumb 9.9303 -21.3637
lclavicle -4.55962e-014 6.5102e-015
lhumerus -42.4595 12.0846 76.9794
lradius 23.4978
lwrist -13.4786
lhand -14.012 26.7571
lfingers 7.12502
lthumb 12.1175 56.3862
rfemur 16.6425 -3.66033 25.8411
rtibia 2.54444e-014
rfoot -12.2764 -7.89203
rtoes -6.77627
lfemur -29.5947 -4.04773 -17.8024
ltibia 22.4962
lfoot -4.33508 0.260568
ltoes 0.370857
